<mxfile host="app.diagrams.net" modified="2021-03-03T10:32:52.805Z" agent="5.0 (Windows NT 10.0; Win64; x64) AppleWebKit/537.36 (KHTML, like Gecko) Chrome/88.0.4324.150 Safari/537.36" etag="ZKUY-mtHUUbTOnzliGSy" version="13.6.6" type="github">
  <diagram name="Page-1" id="fbcf5db9-b524-4cd4-e4f3-379dc89c3999">
    <mxGraphModel dx="1422" dy="762" grid="1" gridSize="10" guides="1" tooltips="1" connect="1" arrows="1" fold="1" page="1" pageScale="1" pageWidth="827" pageHeight="1169" background="#ffffff" math="0" shadow="0">
      <root>
        <mxCell id="0" />
        <mxCell id="1" parent="0" />
        <mxCell id="2a0f93b5c73ef8e7-1" value="" style="line;strokeWidth=10;direction=south;html=1;fillColor=none;fontSize=13;fontColor=#000000;align=center;strokeColor=#AE4132;" parent="1" vertex="1">
          <mxGeometry x="280" y="170" width="10" height="910" as="geometry" />
        </mxCell>
        <mxCell id="2a0f93b5c73ef8e7-2" value="" style="rounded=1;whiteSpace=wrap;html=1;strokeColor=none;strokeWidth=1;fillColor=#F2931E;fontSize=13;fontColor=#FFFFFF;align=center;gradientColor=none;gradientDirection=east;verticalAlign=top;shadow=1;" parent="1" vertex="1">
          <mxGeometry x="90" y="200" width="220" height="85" as="geometry" />
        </mxCell>
        <mxCell id="2a0f93b5c73ef8e7-3" value="1" style="text;html=1;strokeColor=none;fillColor=none;align=center;verticalAlign=middle;whiteSpace=wrap;fontSize=30;fontColor=#FFFFFF;" parent="1" vertex="1">
          <mxGeometry x="100" y="233" width="40" height="20" as="geometry" />
        </mxCell>
        <mxCell id="2a0f93b5c73ef8e7-4" value="" style="rounded=1;whiteSpace=wrap;html=1;strokeColor=none;strokeWidth=1;fillColor=#10739E;fontSize=13;fontColor=#FFFFFF;align=center;gradientColor=none;gradientDirection=east;verticalAlign=top;shadow=1;" parent="1" vertex="1">
          <mxGeometry x="250" y="557" width="220" height="85" as="geometry" />
        </mxCell>
        <mxCell id="2a0f93b5c73ef8e7-5" value="4" style="text;html=1;strokeColor=none;fillColor=none;align=center;verticalAlign=middle;whiteSpace=wrap;fontSize=30;fontColor=#FFFFFF;" parent="1" vertex="1">
          <mxGeometry x="260" y="590" width="40" height="20" as="geometry" />
        </mxCell>
        <mxCell id="2a0f93b5c73ef8e7-8" value="" style="rounded=1;whiteSpace=wrap;html=1;strokeColor=none;strokeWidth=1;fillColor=#10739E;fontSize=13;fontColor=#FFFFFF;align=center;gradientColor=none;gradientDirection=east;verticalAlign=top;shadow=1;" parent="1" vertex="1">
          <mxGeometry x="310" y="696" width="220" height="85" as="geometry" />
        </mxCell>
        <mxCell id="2a0f93b5c73ef8e7-9" value="A" style="text;html=1;strokeColor=none;fillColor=none;align=center;verticalAlign=middle;whiteSpace=wrap;fontSize=30;fontColor=#FFFFFF;" parent="1" vertex="1">
          <mxGeometry x="320" y="729" width="40" height="20" as="geometry" />
        </mxCell>
        <mxCell id="2a0f93b5c73ef8e7-10" value="" style="rounded=1;whiteSpace=wrap;html=1;strokeColor=none;strokeWidth=1;fillColor=#F2931E;fontSize=13;fontColor=#FFFFFF;align=center;gradientColor=none;gradientDirection=east;verticalAlign=top;shadow=1;" parent="1" vertex="1">
          <mxGeometry x="90" y="1070" width="220" height="85" as="geometry" />
        </mxCell>
        <mxCell id="2a0f93b5c73ef8e7-11" value="N" style="text;html=1;strokeColor=none;fillColor=none;align=center;verticalAlign=middle;whiteSpace=wrap;fontSize=30;fontColor=#FFFFFF;" parent="1" vertex="1">
          <mxGeometry x="100" y="1103" width="40" height="20" as="geometry" />
        </mxCell>
        <mxCell id="2a0f93b5c73ef8e7-12" value="" style="rounded=1;whiteSpace=wrap;html=1;strokeColor=none;strokeWidth=1;fillColor=#10739E;fontSize=13;fontColor=#FFFFFF;align=center;gradientColor=none;gradientDirection=east;verticalAlign=top;shadow=1;" parent="1" vertex="1">
          <mxGeometry x="250" y="950" width="220" height="85" as="geometry" />
        </mxCell>
        <mxCell id="2a0f93b5c73ef8e7-13" value="5" style="text;html=1;strokeColor=none;fillColor=none;align=center;verticalAlign=middle;whiteSpace=wrap;fontSize=30;fontColor=#FFFFFF;" parent="1" vertex="1">
          <mxGeometry x="260" y="983" width="40" height="20" as="geometry" />
        </mxCell>
        <mxCell id="2a0f93b5c73ef8e7-18" value="&lt;h1&gt;&lt;font style=&quot;font-size: 14px&quot;&gt;Request INSTALACIÓ&lt;/font&gt;&lt;/h1&gt;&lt;p&gt;Solicitud de preparació de dispositius i&amp;nbsp; deixalleries d&#39;una instància,&amp;nbsp;&lt;/p&gt;&lt;p&gt;A enriquir durant tot el projecte.&lt;/p&gt;&lt;p&gt;&lt;br&gt;&lt;/p&gt;" style="text;html=1;spacing=5;spacingTop=-20;whiteSpace=wrap;overflow=hidden;strokeColor=none;strokeWidth=4;fillColor=none;gradientColor=#007FFF;fontSize=9;fontColor=#FFFFFF;align=center;" parent="1" vertex="1">
          <mxGeometry x="140" y="204" width="160" height="77" as="geometry" />
        </mxCell>
        <mxCell id="2a0f93b5c73ef8e7-19" value="&lt;h1&gt;&lt;font style=&quot;font-size: 14px&quot;&gt;Inventari DISPOSITIU&lt;/font&gt;&lt;/h1&gt;&lt;p&gt;Registrar el nou dispositiu en el sistema d&#39;inventariat, donar-lo d&#39;alta als sistemes de control necessaris i enmagatzemar accesos.&lt;/p&gt;" style="text;html=1;spacing=5;spacingTop=-20;whiteSpace=wrap;overflow=hidden;strokeColor=none;strokeWidth=4;fillColor=none;gradientColor=#007FFF;fontSize=9;fontColor=#FFFFFF;align=center;" parent="1" vertex="1">
          <mxGeometry x="310" y="561" width="160" height="77" as="geometry" />
        </mxCell>
        <mxCell id="4eeyZyHi9IBUeyTs0Q_m-19" style="edgeStyle=orthogonalEdgeStyle;rounded=0;orthogonalLoop=1;jettySize=auto;html=1;entryX=0.5;entryY=0;entryDx=0;entryDy=0;fillColor=#dae8fc;strokeColor=#6c8ebf;strokeWidth=3;" edge="1" parent="1" source="2a0f93b5c73ef8e7-21" target="q16U99xhVMHbdTgpDgCn-8">
          <mxGeometry relative="1" as="geometry" />
        </mxCell>
        <mxCell id="4eeyZyHi9IBUeyTs0Q_m-21" style="edgeStyle=orthogonalEdgeStyle;rounded=0;orthogonalLoop=1;jettySize=auto;html=1;entryX=0.5;entryY=0;entryDx=0;entryDy=0;exitX=0.5;exitY=0;exitDx=0;exitDy=0;startArrow=classic;startFill=1;strokeWidth=3;fillColor=#dae8fc;strokeColor=#6c8ebf;" edge="1" parent="1" source="2a0f93b5c73ef8e7-21" target="4eeyZyHi9IBUeyTs0Q_m-3">
          <mxGeometry relative="1" as="geometry" />
        </mxCell>
        <mxCell id="2a0f93b5c73ef8e7-21" value="&lt;h1&gt;&lt;font style=&quot;font-size: 15px&quot;&gt;Instalació TERMINAL&lt;/font&gt;&lt;/h1&gt;&lt;p&gt;Instalar software de control remot i APK de terminal Wastip en un mobil amb el sistema operatiu nou,&lt;/p&gt;&lt;p&gt;&lt;br&gt;&lt;/p&gt;" style="text;html=1;spacing=5;spacingTop=-20;whiteSpace=wrap;overflow=hidden;strokeColor=none;strokeWidth=4;fillColor=none;gradientColor=#007FFF;fontSize=9;fontColor=#FFFFFF;align=center;" parent="1" vertex="1">
          <mxGeometry x="360" y="700" width="160" height="77" as="geometry" />
        </mxCell>
        <mxCell id="2a0f93b5c73ef8e7-22" value="&lt;h1&gt;&lt;font style=&quot;font-size: 14px&quot;&gt;Informe INSTALACIÓ&lt;/font&gt;&lt;/h1&gt;&lt;p&gt;Informe d&#39;&#39;estat d&#39;instalació amb tota la informació rellevant sobre dispositius i components que permeti la gestió integral de la instal.lació.&lt;/p&gt;" style="text;html=1;spacing=5;spacingTop=-20;whiteSpace=wrap;overflow=hidden;strokeColor=none;strokeWidth=4;fillColor=none;gradientColor=#007FFF;fontSize=9;fontColor=#FFFFFF;align=center;" parent="1" vertex="1">
          <mxGeometry x="140" y="1074" width="160" height="77" as="geometry" />
        </mxCell>
        <mxCell id="2a0f93b5c73ef8e7-23" value="&lt;h1&gt;&lt;font style=&quot;font-size: 14px&quot;&gt;Validació INSTALACIÓ&lt;/font&gt;&lt;/h1&gt;&lt;p&gt;Completar checklist d&#39;instalació testejant els accessos des dels terminals, alive WASII i probes de camp de dispositius.&lt;/p&gt;" style="text;html=1;spacing=5;spacingTop=-20;whiteSpace=wrap;overflow=hidden;strokeColor=none;strokeWidth=4;fillColor=none;gradientColor=#007FFF;fontSize=9;fontColor=#FFFFFF;align=center;" parent="1" vertex="1">
          <mxGeometry x="300" y="954" width="160" height="77" as="geometry" />
        </mxCell>
        <mxCell id="q16U99xhVMHbdTgpDgCn-4" value="&lt;b&gt;&lt;font style=&quot;font-size: 18px&quot;&gt;IT&lt;/font&gt;&lt;/b&gt;" style="text;html=1;align=right;verticalAlign=middle;resizable=0;points=[];autosize=1;" parent="1" vertex="1">
          <mxGeometry x="730" y="150" width="30" height="20" as="geometry" />
        </mxCell>
        <mxCell id="q16U99xhVMHbdTgpDgCn-5" value="&lt;b&gt;&lt;font style=&quot;font-size: 18px&quot;&gt;PROJ&lt;/font&gt;&lt;/b&gt;" style="text;html=1;align=left;verticalAlign=middle;resizable=0;points=[];autosize=1;" parent="1" vertex="1">
          <mxGeometry x="40" y="150" width="60" height="20" as="geometry" />
        </mxCell>
        <mxCell id="q16U99xhVMHbdTgpDgCn-6" value="" style="rounded=1;whiteSpace=wrap;html=1;strokeColor=none;strokeWidth=1;fillColor=#10739E;fontSize=13;fontColor=#FFFFFF;align=center;gradientColor=none;gradientDirection=east;verticalAlign=top;shadow=1;" parent="1" vertex="1">
          <mxGeometry x="310" y="817.5" width="220" height="85" as="geometry" />
        </mxCell>
        <mxCell id="q16U99xhVMHbdTgpDgCn-7" value="B" style="text;html=1;strokeColor=none;fillColor=none;align=center;verticalAlign=middle;whiteSpace=wrap;fontSize=30;fontColor=#FFFFFF;" parent="1" vertex="1">
          <mxGeometry x="320" y="850.5" width="40" height="20" as="geometry" />
        </mxCell>
        <mxCell id="4eeyZyHi9IBUeyTs0Q_m-24" style="edgeStyle=orthogonalEdgeStyle;rounded=0;orthogonalLoop=1;jettySize=auto;html=1;entryX=0.5;entryY=1;entryDx=0;entryDy=0;startArrow=none;startFill=0;strokeWidth=4;exitX=0.5;exitY=1;exitDx=0;exitDy=0;endArrow=none;endFill=0;fillColor=#dae8fc;strokeColor=#6c8ebf;" edge="1" parent="1" source="q16U99xhVMHbdTgpDgCn-8" target="4eeyZyHi9IBUeyTs0Q_m-6">
          <mxGeometry relative="1" as="geometry" />
        </mxCell>
        <mxCell id="q16U99xhVMHbdTgpDgCn-8" value="&lt;h1&gt;&lt;font style=&quot;font-size: 13px&quot;&gt;Configuracio TERMINAL&lt;/font&gt;&lt;/h1&gt;&lt;p&gt;Aquirir el ID únic del teminal per el seu control, incloure aquest en el sistema d&#39;autoconfiguració.&lt;/p&gt;" style="text;html=1;spacing=5;spacingTop=-20;whiteSpace=wrap;overflow=hidden;strokeColor=none;strokeWidth=4;fillColor=none;gradientColor=#007FFF;fontSize=9;fontColor=#FFFFFF;align=center;" parent="1" vertex="1">
          <mxGeometry x="360" y="821.5" width="160" height="77" as="geometry" />
        </mxCell>
        <mxCell id="q16U99xhVMHbdTgpDgCn-13" value="PROC 2 - Preparació dispositius i instalació" style="text;html=1;strokeColor=none;fillColor=none;align=center;verticalAlign=middle;whiteSpace=wrap;rounded=0;fontStyle=1;fontSize=32;" parent="1" vertex="1">
          <mxGeometry x="50" y="50" width="710" height="20" as="geometry" />
        </mxCell>
        <mxCell id="4eeyZyHi9IBUeyTs0Q_m-1" value="" style="rounded=1;whiteSpace=wrap;html=1;strokeColor=none;strokeWidth=1;fillColor=#10739E;fontSize=13;fontColor=#FFFFFF;align=center;gradientColor=none;gradientDirection=east;verticalAlign=top;shadow=1;" vertex="1" parent="1">
          <mxGeometry x="590" y="696" width="220" height="85" as="geometry" />
        </mxCell>
        <mxCell id="4eeyZyHi9IBUeyTs0Q_m-2" value="C" style="text;html=1;strokeColor=none;fillColor=none;align=center;verticalAlign=middle;whiteSpace=wrap;fontSize=30;fontColor=#FFFFFF;" vertex="1" parent="1">
          <mxGeometry x="600" y="729" width="40" height="20" as="geometry" />
        </mxCell>
        <mxCell id="4eeyZyHi9IBUeyTs0Q_m-20" style="edgeStyle=orthogonalEdgeStyle;rounded=0;orthogonalLoop=1;jettySize=auto;html=1;entryX=0.5;entryY=0;entryDx=0;entryDy=0;fillColor=#dae8fc;strokeColor=#6c8ebf;strokeWidth=3;" edge="1" parent="1" source="4eeyZyHi9IBUeyTs0Q_m-3" target="4eeyZyHi9IBUeyTs0Q_m-6">
          <mxGeometry relative="1" as="geometry" />
        </mxCell>
        <mxCell id="4eeyZyHi9IBUeyTs0Q_m-3" value="&lt;h1&gt;Instalació WASII&lt;/h1&gt;&lt;p&gt;Generar una nova tarjeta SD a partir de la base de controlador WASII i testejar nou dsipositiu.&lt;/p&gt;" style="text;html=1;spacing=5;spacingTop=-20;whiteSpace=wrap;overflow=hidden;strokeColor=none;strokeWidth=4;fillColor=none;gradientColor=#007FFF;fontSize=9;fontColor=#FFFFFF;align=center;" vertex="1" parent="1">
          <mxGeometry x="640" y="700" width="160" height="77" as="geometry" />
        </mxCell>
        <mxCell id="4eeyZyHi9IBUeyTs0Q_m-4" value="" style="rounded=1;whiteSpace=wrap;html=1;strokeColor=none;strokeWidth=1;fillColor=#10739E;fontSize=13;fontColor=#FFFFFF;align=center;gradientColor=none;gradientDirection=east;verticalAlign=top;shadow=1;" vertex="1" parent="1">
          <mxGeometry x="590" y="822" width="220" height="85" as="geometry" />
        </mxCell>
        <mxCell id="4eeyZyHi9IBUeyTs0Q_m-5" value="D" style="text;html=1;strokeColor=none;fillColor=none;align=center;verticalAlign=middle;whiteSpace=wrap;fontSize=30;fontColor=#FFFFFF;" vertex="1" parent="1">
          <mxGeometry x="600" y="855" width="40" height="20" as="geometry" />
        </mxCell>
        <mxCell id="4eeyZyHi9IBUeyTs0Q_m-6" value="&lt;h1&gt;&lt;font style=&quot;font-size: 16px&quot;&gt;Configuració WASII&lt;/font&gt;&lt;/h1&gt;&lt;p&gt;Validar la identificació del wasii als serveis de alive i configuració.&lt;br&gt;Incloure els drives necessaris per a la instalació i la seva configuració.&lt;/p&gt;" style="text;html=1;spacing=5;spacingTop=-20;whiteSpace=wrap;overflow=hidden;strokeColor=none;strokeWidth=4;fillColor=none;gradientColor=#007FFF;fontSize=9;fontColor=#FFFFFF;align=center;" vertex="1" parent="1">
          <mxGeometry x="640" y="826" width="160" height="77" as="geometry" />
        </mxCell>
        <mxCell id="4eeyZyHi9IBUeyTs0Q_m-12" value="" style="rounded=1;whiteSpace=wrap;html=1;strokeColor=none;strokeWidth=1;fillColor=#10739E;fontSize=13;fontColor=#FFFFFF;align=center;gradientColor=none;gradientDirection=east;verticalAlign=top;shadow=1;" vertex="1" parent="1">
          <mxGeometry x="250" y="440" width="220" height="85" as="geometry" />
        </mxCell>
        <mxCell id="4eeyZyHi9IBUeyTs0Q_m-13" value="3" style="text;html=1;strokeColor=none;fillColor=none;align=center;verticalAlign=middle;whiteSpace=wrap;fontSize=30;fontColor=#FFFFFF;" vertex="1" parent="1">
          <mxGeometry x="260" y="473" width="40" height="20" as="geometry" />
        </mxCell>
        <mxCell id="4eeyZyHi9IBUeyTs0Q_m-14" value="&lt;h1&gt;&lt;font style=&quot;font-size: 14px&quot;&gt;Plantilla AUTOCONFIG&lt;/font&gt;&lt;/h1&gt;&lt;p&gt;Crear la plantilla d&#39;autoconfig per a la instància en el sistema de gestió de configuracions de l&#39;app.&lt;/p&gt;" style="text;html=1;spacing=5;spacingTop=-20;whiteSpace=wrap;overflow=hidden;strokeColor=none;strokeWidth=4;fillColor=none;gradientColor=#007FFF;fontSize=9;fontColor=#FFFFFF;align=center;" vertex="1" parent="1">
          <mxGeometry x="310" y="444" width="160" height="77" as="geometry" />
        </mxCell>
        <mxCell id="4eeyZyHi9IBUeyTs0Q_m-15" value="" style="rounded=1;whiteSpace=wrap;html=1;strokeColor=none;strokeWidth=1;fillColor=#10739E;fontSize=13;fontColor=#FFFFFF;align=center;gradientColor=none;gradientDirection=east;verticalAlign=top;shadow=1;" vertex="1" parent="1">
          <mxGeometry x="250" y="320" width="220" height="85" as="geometry" />
        </mxCell>
        <mxCell id="4eeyZyHi9IBUeyTs0Q_m-16" value="2" style="text;html=1;strokeColor=none;fillColor=none;align=center;verticalAlign=middle;whiteSpace=wrap;fontSize=30;fontColor=#FFFFFF;" vertex="1" parent="1">
          <mxGeometry x="260" y="353" width="40" height="20" as="geometry" />
        </mxCell>
        <mxCell id="4eeyZyHi9IBUeyTs0Q_m-17" value="&lt;h1&gt;&lt;font style=&quot;font-size: 14px&quot;&gt;Definició WIFI INSTALACIÓ&lt;/font&gt;&lt;/h1&gt;&lt;p&gt;Validar i registrar la configuració wifi de la deixalleria.&lt;/p&gt;" style="text;html=1;spacing=5;spacingTop=-20;whiteSpace=wrap;overflow=hidden;strokeColor=none;strokeWidth=4;fillColor=none;gradientColor=#007FFF;fontSize=9;fontColor=#FFFFFF;align=center;" vertex="1" parent="1">
          <mxGeometry x="310" y="324" width="160" height="77" as="geometry" />
        </mxCell>
        <mxCell id="4eeyZyHi9IBUeyTs0Q_m-25" value="" style="endArrow=none;html=1;strokeWidth=4;exitX=1;exitY=0.5;exitDx=0;exitDy=0;fillColor=#dae8fc;strokeColor=#6c8ebf;endFill=0;" edge="1" parent="1" source="2a0f93b5c73ef8e7-19">
          <mxGeometry width="50" height="50" relative="1" as="geometry">
            <mxPoint x="590" y="790" as="sourcePoint" />
            <mxPoint x="580" y="680" as="targetPoint" />
            <Array as="points">
              <mxPoint x="580" y="600" />
            </Array>
          </mxGeometry>
        </mxCell>
        <mxCell id="4eeyZyHi9IBUeyTs0Q_m-26" value="" style="endArrow=none;html=1;strokeWidth=4;fillColor=#dae8fc;strokeColor=#6c8ebf;" edge="1" parent="1">
          <mxGeometry width="50" height="50" relative="1" as="geometry">
            <mxPoint x="580" y="960" as="sourcePoint" />
            <mxPoint x="580" y="920" as="targetPoint" />
          </mxGeometry>
        </mxCell>
        <mxCell id="4eeyZyHi9IBUeyTs0Q_m-27" value="" style="endArrow=none;html=1;strokeWidth=4;fillColor=#dae8fc;strokeColor=#6c8ebf;" edge="1" parent="1">
          <mxGeometry width="50" height="50" relative="1" as="geometry">
            <mxPoint x="578" y="960" as="sourcePoint" />
            <mxPoint x="818" y="960" as="targetPoint" />
          </mxGeometry>
        </mxCell>
        <mxCell id="4eeyZyHi9IBUeyTs0Q_m-29" value="" style="endArrow=none;html=1;strokeWidth=4;fillColor=#dae8fc;strokeColor=#6c8ebf;" edge="1" parent="1">
          <mxGeometry width="50" height="50" relative="1" as="geometry">
            <mxPoint x="819" y="961" as="sourcePoint" />
            <mxPoint x="819" y="641" as="targetPoint" />
          </mxGeometry>
        </mxCell>
        <mxCell id="4eeyZyHi9IBUeyTs0Q_m-30" value="" style="endArrow=none;html=1;strokeWidth=4;fillColor=#dae8fc;strokeColor=#6c8ebf;" edge="1" parent="1">
          <mxGeometry width="50" height="50" relative="1" as="geometry">
            <mxPoint x="580" y="640" as="sourcePoint" />
            <mxPoint x="820" y="640" as="targetPoint" />
          </mxGeometry>
        </mxCell>
      </root>
    </mxGraphModel>
  </diagram>
</mxfile>
